# xmcd
#
# Track frame offsets: 
#        150
#        31290
#        56007
#        73212
#        103062
#        124830
#        142605
#        161237
#        177540
#        200800
#
# Disc length: 2913 seconds
#
# Revision: 24
# Processed by: cddbd v1.5.2PL0 Copyright (c) Steve Scherf et al.
# Submitted via: ExactAudioCopyFreeDBPlugin 1.0
#
DISCID=980b5f0a
DTITLE=Chris Rea - Espresso logic Original Album Series(Disk5
DYEAR=1993
DGENRE=Blues
TTITLE0=espresso logic
TTITLE1=red
TTITLE2=soup of the day
TTITLE3=johnny needs a fast car
TTITLE4=between the devil and the deep blue sea
TTITLE5=julia
TTITLE6=summer love
TTITLE7=new way
TTITLE8=stop
TTITLE9=she closed her eyes
EXTD=
EXTT0=
EXTT1=
EXTT2=
EXTT3=
EXTT4=
EXTT5=
EXTT6=
EXTT7=
EXTT8=
EXTT9=
PLAYORDER=
